<?xml version="1.0" encoding="utf-8"?>
<!-- Generator: Adobe Illustrator 21.1.0, SVG Export Plug-In . SVG Version: 6.00 Build 0)  -->
<svg version="1.1" xmlns="http://www.w3.org/2000/svg" xmlns:xlink="http://www.w3.org/1999/xlink" x="0px" y="0px"
	 viewBox="0 0 410.3 405.9" style="enable-background:new 0 0 410.3 405.9;" xml:space="preserve">
<style type="text/css">
	.st0{fill:#FFFFFF;}
</style>
<g id="Layer_4_copy_2">
	<path class="st0" d="M394.1,123.9c-10.3-24.2-25.2-45.9-44-64.5c-0.4-0.4-0.8-0.8-1.2-1.2l-7.3,17.5l-8.3,19.7
		c25.9,30,40.1,67.7,40.1,107.5c0,44.3-17.5,85.9-49.2,117.2c-31.8,31.4-74.1,48.7-119,48.7c-45,0-87.2-17.3-119-48.7
		c-31.7-31.3-49.2-73-49.2-117.2c0-39.4,13.8-76.7,39.2-106.5L60.6,59.1c-0.1,0.1-0.3,0.3-0.4,0.4c-18.9,18.6-33.7,40.3-44,64.5
		C5.4,149,0,175.6,0,203c0,27.4,5.4,54,16.2,79c10.3,24.2,25.2,45.9,44,64.5c18.8,18.6,40.8,33.2,65.2,43.4
		c25.3,10.6,52.1,15.9,79.8,15.9c27.7,0,54.5-5.4,79.8-15.9c24.4-10.2,46.4-24.8,65.2-43.4c18.9-18.6,33.7-40.3,44-64.5
		c10.7-25,16.2-51.6,16.2-79C410.3,175.6,404.9,149,394.1,123.9z"/>
</g>
<g id="Layer_3_copy_2">
	<path class="st0" d="M216.7,210.9l-24.7,0L112.8,21.8c0,0,37.6-21.8,92-21.8c54.1,0,91.8,21.3,91.8,21.3L216.7,210.9z"/>
</g>
<g id="Layer_5">
</g>
</svg>
